    
 <svg width="50" height="50" viewBox="0 0 64 64" fill="none" xmlns="http://www.w3.org/2000/svg">
<path d="M60 7H4C3.73478 7 3.48043 7.10536 3.29289 7.29289C3.10536 7.48043 3 7.73478 3 8V46C3 46.2652 3.10536 46.5196 3.29289 46.7071C3.48043 46.8946 3.73478 47 4 47H25.7C24.3903 47.9157 23.2959 49.1057 22.4929 50.4873C21.6898 51.8688 21.1975 53.4088 21.05 55H18C17.7348 55 17.4804 55.1054 17.2929 55.2929C17.1054 55.4804 17 55.7348 17 56C17 56.2652 17.1054 56.5196 17.2929 56.7071C17.4804 56.8946 17.7348 57 18 57H46C46.2652 57 46.5196 56.8946 46.7071 56.7071C46.8946 56.5196 47 56.2652 47 56C47 55.7348 46.8946 55.4804 46.7071 55.2929C46.5196 55.1054 46.2652 55 46 55H43C42.8525 53.4088 42.3602 51.8688 41.5571 50.4873C40.7541 49.1057 39.6597 47.9157 38.35 47H60C60.2652 47 60.5196 46.8946 60.7071 46.7071C60.8946 46.5196 61 46.2652 61 46V8C61 7.73478 60.8946 7.48043 60.7071 7.29289C60.5196 7.10536 60.2652 7 60 7ZM59 9V37H5V9H59ZM27.1 55C27.3295 53.8697 27.9427 52.8535 28.8357 52.1236C29.7288 51.3937 30.8466 50.995 32 50.995C33.1534 50.995 34.2712 51.3937 35.1643 52.1236C36.0573 52.8535 36.6705 53.8697 36.9 55H27.1ZM40.94 55H38.94C38.6877 53.3455 37.8509 51.8361 36.5814 50.7455C35.3119 49.6549 33.6936 49.0553 32.02 49.0553C30.3464 49.0553 28.7281 49.6549 27.4586 50.7455C26.1891 51.8361 25.3523 53.3455 25.1 55H23.1C23.3545 52.8074 24.4058 50.7848 26.0541 49.3167C27.7024 47.8487 29.8327 47.0375 32.04 47.0375C34.2473 47.0375 36.3776 47.8487 38.0259 49.3167C39.6742 50.7848 40.7255 52.8074 40.98 55H40.94ZM5 45V39H59V45H5Z" fill="black"/>
<path d="M32 44C33.1046 44 34 43.1046 34 42C34 40.8954 33.1046 40 32 40C30.8954 40 30 40.8954 30 42C30 43.1046 30.8954 44 32 44Z" fill="black"/>
<path d="M16.11 31.8799C17.4945 31.8799 18.8478 31.4693 19.999 30.7002C21.1501 29.931 22.0473 28.8378 22.5771 27.5587C23.107 26.2796 23.2456 24.8721 22.9755 23.5143C22.7054 22.1564 22.0387 20.9091 21.0597 19.9301C20.0808 18.9512 18.8335 18.2845 17.4756 18.0144C16.1178 17.7443 14.7103 17.8829 13.4312 18.4127C12.1521 18.9425 11.0589 19.8398 10.2897 20.9909C9.52053 22.142 9.10999 23.4954 9.10999 24.8799C9.10999 25.7991 9.29105 26.7094 9.64283 27.5587C9.99461 28.4079 10.5102 29.1796 11.1602 29.8296C12.473 31.1424 14.2535 31.8799 16.11 31.8799V31.8799ZM16.11 19.8799C17.0989 19.8799 18.0656 20.1731 18.8878 20.7225C19.7101 21.2719 20.3509 22.0528 20.7294 22.9665C21.1078 23.8801 21.2068 24.8854 21.0139 25.8553C20.821 26.8252 20.3448 27.7162 19.6455 28.4154C18.9463 29.1147 18.0553 29.5909 17.0854 29.7838C16.1155 29.9767 15.1102 29.8777 14.1966 29.4993C13.2829 29.1208 12.502 28.48 11.9526 27.6577C11.4032 26.8355 11.11 25.8688 11.11 24.8799C11.11 23.5538 11.6368 22.282 12.5745 21.3444C13.5121 20.4067 14.7839 19.8799 16.11 19.8799V19.8799Z" fill="black"/>
<path d="M31 23H26V32H31V23Z" fill="black"/>
<path d="M41 19H36V32H41V19Z" fill="black"/>
<path d="M51 13H46V32H51V13Z" fill="black"/>
<path d="M16.12 27.25C15.9807 27.2581 15.8413 27.2386 15.7095 27.1927C15.5778 27.1468 15.4565 27.0754 15.3524 26.9825C15.2484 26.8896 15.1637 26.777 15.1032 26.6513C15.0427 26.5256 15.0077 26.3892 15 26.25C15 26.04 14.78 25.87 14.5 25.87C14.22 25.87 14 26.04 14 26.25C14.0267 26.64 14.1782 27.011 14.4321 27.3081C14.6861 27.6053 15.0289 27.8128 15.41 27.9L15.63 27.96V28.77C15.661 28.8786 15.7266 28.9742 15.8168 29.0423C15.9071 29.1103 16.017 29.1471 16.13 29.1471C16.243 29.1471 16.3529 29.1103 16.4432 29.0423C16.5334 28.9742 16.599 28.8786 16.63 28.77V28L16.84 27.93C17.2191 27.8444 17.5604 27.6384 17.8127 27.3428C18.0651 27.0472 18.215 26.6778 18.24 26.29C18.1772 25.7807 17.9211 25.3151 17.5247 24.9894C17.1282 24.6637 16.6217 24.5028 16.11 24.54C15.919 24.5169 15.7388 24.4392 15.5909 24.3163C15.4429 24.1933 15.3336 24.0303 15.276 23.8468C15.2183 23.6633 15.2149 23.467 15.2659 23.2816C15.317 23.0961 15.4205 22.9294 15.564 22.8013C15.7075 22.6732 15.8849 22.5891 16.0749 22.5593C16.2649 22.5295 16.4595 22.5551 16.6354 22.633C16.8112 22.711 16.9608 22.838 17.0663 22.9989C17.1718 23.1598 17.2286 23.3476 17.23 23.54C17.23 23.75 17.46 23.92 17.74 23.92C18.02 23.92 18.24 23.75 18.24 23.54C18.215 23.1521 18.0651 22.7828 17.8127 22.4871C17.5604 22.1915 17.2191 21.9855 16.84 21.9L16.63 21.83V21C16.599 20.8913 16.5334 20.7957 16.4432 20.7277C16.3529 20.6596 16.243 20.6228 16.13 20.6228C16.017 20.6228 15.9071 20.6596 15.8168 20.7277C15.7266 20.7957 15.661 20.8913 15.63 21V21.87L15.41 21.93C15.0335 22.0155 14.694 22.2186 14.4406 22.5098C14.1871 22.801 14.0328 23.1653 14 23.55C14.0651 24.0555 14.3208 24.5172 14.7148 24.8406C15.1088 25.164 15.6114 25.3247 16.12 25.29C16.3852 25.29 16.6396 25.3953 16.8271 25.5829C17.0146 25.7704 17.12 26.0248 17.12 26.29C17.12 26.5552 17.0146 26.8095 16.8271 26.9971C16.6396 27.1846 16.3852 27.29 16.12 27.29V27.25Z" fill="black"/>
</svg>




