
    <svg   class="mr-3" height="50" viewBox="1 0 511.99963 511" width="50" xmlns="http://www.w3.org/2000/svg"><path d="m153.828125 353.808594c5.515625 0 9.988281-4.476563 9.988281-9.992188v-39.355468c0-5.515626-4.472656-9.988282-9.988281-9.988282s-9.988281 4.472656-9.988281 9.988282v39.355468c0 5.515625 4.472656 9.992188 9.988281 9.992188zm0 0"/><path d="m205.769531 353.808594c5.515625 0 9.988281-4.476563 9.988281-9.992188v-39.355468c0-5.515626-4.472656-9.988282-9.988281-9.988282s-9.988281 4.472656-9.988281 9.988282v39.355468c0 5.515625 4.472656 9.992188 9.988281 9.992188zm0 0"/><path d="m257.710938 353.808594c5.515624 0 9.992187-4.476563 9.992187-9.992188v-39.355468c0-5.515626-4.476563-9.988282-9.992187-9.988282-5.515626 0-9.988282 4.472656-9.988282 9.988282v39.355468c0 5.515625 4.472656 9.992188 9.988282 9.992188zm0 0"/><path d="m309.65625 353.808594c5.515625 0 9.988281-4.476563 9.988281-9.992188v-39.355468c0-5.515626-4.472656-9.988282-9.988281-9.988282s-9.992188 4.472656-9.992188 9.988282v39.355468c0 5.515625 4.476563 9.992188 9.992188 9.992188zm0 0"/><path d="m494.949219 485.183594c-9.011719 9.007812-23.671875 9.007812-32.679688 0-8.136719-8.136719-18.957031-12.621094-30.464843-12.621094-11.507813 0-22.328126 4.484375-30.464844 12.621094-8.09375 8.09375-20.730469 8.890625-29.753906 2.445312v-38.023437c4.273437 1.394531 8.785156 2.132812 13.414062 2.132812 11.507812 0 22.328125-4.480469 30.464844-12.621093 9.011718-9.007813 23.667968-9.007813 32.679687 0 8.136719 8.136718 18.957031 12.621093 30.464844 12.621093s22.328125-4.480469 30.464844-12.621093c2.804687-2.800782 3.582031-6.855469 2.355469-10.363282v-69.15625c0-42.683594-34.726563-77.410156-77.414063-77.410156h-62.429687v-41.953125c0-5.519531-4.472657-9.992187-9.988282-9.992187h-25.972656v-52.941407c0-3.621093-1.960938-6.960937-5.128906-8.726562l-87.902344-48.945313c-3.09375-1.722656-6.867188-1.679687-9.921875.117188-3.050781 1.792968-4.925781 5.070312-4.925781 8.609375v31.949219l-73.054688-40.675782c-3.09375-1.722656-6.871094-1.679687-9.921875.117188-3.050781 1.792968-4.925781 5.070312-4.925781 8.609375v101.886719h-27.96875v-118.367188c0-4.515625-3-8.328125-7.113281-9.5625v-12.507812c0-2.332032 1.898437-4.234376 4.234375-4.234376h49.601562c21.832032 0 39.59375-17.757812 39.59375-39.589843s-17.761718-39.59375-39.59375-39.59375h-35.273437c-7.773438-3.804688-16.394531-5.886719-25.273438-5.886719-8.9375 0-17.667969 2.058594-25.582031 5.984375-7.085938-3.882813-15.109375-5.984375-23.515625-5.984375-26.992187 0-48.953125 21.960938-48.953125 48.953125v452.488281c0 5.515625 4.472656 9.988282 9.988281 9.988282h351.609375c2.863282 0 5.4375-1.210938 7.257813-3.140626 15.546875 6.257813 34.03125 3.101563 46.609375-9.476562 4.363281-4.367188 10.167968-6.769531 16.339844-6.769531 6.171874 0 11.972656 2.402343 16.339843 6.769531 8.398438 8.398438 19.429688 12.597656 30.464844 12.597656 11.03125 0 22.066406-4.199218 30.464844-12.597656 3.902343-3.902344 3.902343-10.226562 0-14.128906-3.902344-3.898438-10.222657-3.898438-14.125 0zm-93.609375-60.191406c-4.367188 4.367187-10.167969 6.769531-16.339844 6.769531-4.882812 0-9.523438-1.527344-13.414062-4.316407v-69.34375h45.949218c12.390625 0 22.472656 10.082032 22.472656 22.476563v32.597656c-13.578124-2.613281-28.175781 1.328125-38.667968 11.816407zm90.113281-65.390626v68.269532c-3.769531 2.527344-8.203125 3.890625-12.84375 3.890625-6.171875 0-11.976563-2.402344-16.339844-6.769531-.738281-.738282-1.503906-1.433594-2.28125-2.105469v-42.308594c0-19.96875-13.859375-36.75-32.464843-41.253906v-37.160157h6.492187c31.671875 0 57.4375 25.765626 57.4375 57.4375zm-83.90625-57.4375v35.960938h-35.960937v-35.960938zm-159.824219-156.8125 67.925782 37.824219v47.066407h-67.925782zm-87.902344 0 67.925782 37.824219v47.066407h-67.925782zm191.789063 104.871094v147.835938h-239.734375v-147.835938zm-331.632813 147.835938v-228.246094h71.921876v228.246094zm71.921876-276.191406v27.96875h-71.921876v-27.96875zm-42.945313-101.386719c9.199219 0 17.652344 4.222656 23.183594 11.589843 3.3125 4.410157 9.574219 5.300782 13.988281 1.988282 3.925781-2.949219 5.054688-8.234375 2.917969-12.472656 2.925781-.71875 5.945312-1.109376 9.007812-1.109376 12.183594 0 23.671875 5.957032 30.734375 15.933594 1.945313 2.75 5.03125 4.222656 8.164063 4.222656 1.992187 0 4.007812-.597656 5.757812-1.835937 4.023438-2.847656 5.296875-8.125 3.25-12.429687h12.644531c10.816407 0 19.613282 8.796874 19.613282 19.613281 0 10.816406-8.796875 19.617187-19.613282 19.617187h-49.601562c-13.351562 0-24.210938 10.859375-24.210938 24.210938v12.078125h-64.8125v-52.433594c0-15.976563 13-28.972656 28.976563-28.972656zm-28.976563 451.496093h78.246094c5.515625 0 9.988282-4.472656 9.988282-9.992187 0-5.515625-4.472657-9.988281-9.988282-9.988281h-78.246094v-33.960938h331.632813v14.015625.011719 59.890625h-331.632813zm0 0"/><path d="m138.175781 451.996094c-2.625 0-5.203125 1.070312-7.0625 2.929687-1.859375 1.855469-2.925781 4.433594-2.925781 7.058594 0 2.628906 1.066406 5.207031 2.925781 7.0625 1.859375 1.859375 4.4375 2.929687 7.0625 2.929687 2.628907 0 5.203125-1.070312 7.0625-2.929687 1.867188-1.855469 2.925781-4.433594 2.925781-7.0625 0-2.625-1.058593-5.203125-2.925781-7.058594-1.859375-1.859375-4.425781-2.929687-7.0625-2.929687zm0 0"/><path d="m282.683594 85.574219h-57.933594c-5.515625 0-9.988281-4.472657-9.988281-9.988281 0-5.515626 4.472656-9.988282 9.988281-9.988282h57.933594c5.515625 0 9.988281 4.472656 9.988281 9.988282 0 5.515624-4.472656 9.988281-9.988281 9.988281zm0 0"/><path d="m322.640625 85.574219c-2.628906 0-5.203125-1.066407-7.0625-2.925781-1.859375-1.855469-2.925781-4.433594-2.925781-7.0625 0-2.625 1.066406-5.203126 2.925781-7.0625 1.859375-1.867188 4.433594-2.925782 7.0625-2.925782 2.625 0 5.203125 1.058594 7.0625 2.925782 1.855469 1.859374 2.925781 4.4375 2.925781 7.0625 0 2.628906-1.070312 5.195312-2.925781 7.0625-1.859375 1.859374-4.4375 2.925781-7.0625 2.925781zm0 0"/></svg>
